<svg xmlns="http://www.w3.org/2000/svg" viewBox="0 0 494.43 171.67"><path d="M422.17 55.47h-27.35a2.18 2.18 0 0 0-2.17 2.17v51.81a2.18 2.18 0 0 0 2.17 2.17h27.34a2.18 2.18 0 0 0 2.17-2.17V57.64a2.18 2.18 0 0 0-2.16-2.17zM414.91 104a2.18 2.18 0 0 1-2.17 2.17h-8.49a2.18 2.18 0 0 1-2.17-2.17V63.1a2.18 2.18 0 0 1 2.17-2.17h8.49a2.18 2.18 0 0 1 2.17 2.17zm54.29-48.6a1.47 1.47 0 0 1-1.47-1.47v-5.59a1.47 1.47 0 0 1 1.47-1.47h21.51a2.18 2.18 0 0 0 2.17-2.17v-1.15a2.18 2.18 0 0 0-2.17-2.17H469.2a1.47 1.47 0 0 1-1.47-1.47V30a2.18 2.18 0 0 0-2.17-2.17h-5.4A2.18 2.18 0 0 0 458 30v9.95a1.47 1.47 0 0 1-1.47 1.47h-20.75a2.18 2.18 0 0 0-2.17 2.17v1.11a2.18 2.18 0 0 0 2.17 2.17h20.73a1.47 1.47 0 0 1 1.49 1.47v5.59a1.47 1.47 0 0 1-1.47 1.47h-17.8a2.18 2.18 0 0 0-2.17 2.17v1.13a2.18 2.18 0 0 0 2.17 2.17h17.79a1.47 1.47 0 0 1 1.48 1.48V68a1.47 1.47 0 0 1-1.47 1.47h-20.75a2.18 2.18 0 0 0-2.17 2.17v1.13a2.18 2.18 0 0 0 2.17 2.17h54.85a2.18 2.18 0 0 0 2.17-2.17v-1.12a2.18 2.18 0 0 0-2.17-2.17H469.2a1.47 1.47 0 0 1-1.47-1.48v-5.65a1.47 1.47 0 0 1 1.47-1.47h19.95a2.18 2.18 0 0 0 2.17-2.17v-1.14a2.18 2.18 0 0 0-2.17-2.17zm24.38 82.14l-15.45-11.88h11a2.78 2.78 0 0 0 2.17-1.14l-1-41c0-2.23-1-3.21-2.17-3.21h-50.79a2.18 2.18 0 0 0-2.17 2.17v41a2.18 2.18 0 0 0 2.17 2.17h11l-15.45 11.88a2.18 2.18 0 0 0-.4 3l1.87 2.44a2.18 2.18 0 0 0 3 .4l23.09-17.76H466l23.09 17.76a2.18 2.18 0 0 0 3-.4l1.87-2.44a2.18 2.18 0 0 0-.38-2.99zM444.8 88a2.18 2.18 0 0 1 2.2-2.17h31.56a2.29 2.29 0 0 1 2.17 2.56l.49 15.61-13.8-.64a1 1 0 0 1-1-1.14l1.17-6.59a1.05 1.05 0 0 0-.93-1.16l-21.86-1.2zm0 30V98.76l15.11 1a1.11 1.11 0 0 1 1 1.21l-1.25 6.48a.93.93 0 0 0 .78 1.2l20.92 1 .33 8.73a2.15 2.15 0 0 1-2.17 1.79H447a2.18 2.18 0 0 1-2.2-2.17zM269.17 55.47h-27.35a2.18 2.18 0 0 0-2.17 2.17v51.81a2.18 2.18 0 0 0 2.17 2.17h27.34a2.18 2.18 0 0 0 2.17-2.17V57.64a2.18 2.18 0 0 0-2.16-2.17zM261.91 104a2.18 2.18 0 0 1-2.17 2.17h-8.49a2.18 2.18 0 0 1-2.17-2.17V63.1a2.18 2.18 0 0 1 2.17-2.17h8.49a2.18 2.18 0 0 1 2.17 2.17zm54.29-48.6a1.47 1.47 0 0 1-1.47-1.47v-5.59a1.47 1.47 0 0 1 1.47-1.47h21.51a2.18 2.18 0 0 0 2.17-2.17v-1.15a2.18 2.18 0 0 0-2.17-2.17H316.2a1.47 1.47 0 0 1-1.47-1.47V30a2.18 2.18 0 0 0-2.17-2.17h-5.4A2.18 2.18 0 0 0 305 30v9.95a1.47 1.47 0 0 1-1.47 1.47h-20.75a2.18 2.18 0 0 0-2.17 2.17v1.11a2.18 2.18 0 0 0 2.17 2.17h20.73a1.47 1.47 0 0 1 1.49 1.47v5.59a1.47 1.47 0 0 1-1.47 1.47h-17.8a2.18 2.18 0 0 0-2.17 2.17v1.13a2.18 2.18 0 0 0 2.17 2.17h17.79a1.47 1.47 0 0 1 1.48 1.48V68a1.47 1.47 0 0 1-1.47 1.47h-20.75a2.18 2.18 0 0 0-2.17 2.17v1.13a2.18 2.18 0 0 0 2.17 2.17h54.85a2.18 2.18 0 0 0 2.17-2.17v-1.12a2.18 2.18 0 0 0-2.17-2.17H316.2a1.47 1.47 0 0 1-1.47-1.48v-5.65a1.47 1.47 0 0 1 1.47-1.47h19.95a2.18 2.18 0 0 0 2.17-2.17v-1.14a2.18 2.18 0 0 0-2.17-2.17zm24.38 82.14l-15.45-11.88h11a2.78 2.78 0 0 0 2.17-1.14l-1-41c0-2.23-1-3.21-2.17-3.21h-50.79a2.18 2.18 0 0 0-2.17 2.17v41a2.18 2.18 0 0 0 2.17 2.17h11l-15.45 11.88a2.18 2.18 0 0 0-.4 3l1.87 2.44a2.18 2.18 0 0 0 3 .4l23.09-17.76H313l23.09 17.76a2.18 2.18 0 0 0 3-.4l1.87-2.44a2.18 2.18 0 0 0-.38-2.99zM291.8 88a2.18 2.18 0 0 1 2.2-2.17h31.56a2.29 2.29 0 0 1 2.17 2.56l.49 15.61-13.8-.64a1 1 0 0 1-1-1.14l1.17-6.59a1.05 1.05 0 0 0-.93-1.16l-21.86-1.2zm0 30V98.76l15.11 1a1.11 1.11 0 0 1 1 1.21l-1.25 6.48a.93.93 0 0 0 .78 1.2l20.92 1 .33 8.73a2.15 2.15 0 0 1-2.17 1.79H294a2.18 2.18 0 0 1-2.2-2.17zM85.83 0a85.83 85.83 0 1 0 85.83 85.83A85.83 85.83 0 0 0 85.83 0zM134 93.93l-2 8.93c-.28 1.47-1 1.92-2.26 1.85l-50.35-2.37a2.14 2.14 0 0 1-1.78-2.74l2.86-14.84A2.55 2.55 0 0 0 78.18 82l-38.61-2.6c-1.26 0-1.95-.82-1.95-2.26l1.44-8.47c.28-1.43 1-1.77 2.29-1.7l52.16 2.89a2.41 2.41 0 0 1 2.14 2.65L93 87.58a2.33 2.33 0 0 0 2.33 2.61l37.38 1.73c1.12 0 1.51.67 1.29 2.01z" data-name="Layer 2"/></svg>
