<svg xmlns="http://www.w3.org/2000/svg" viewBox="0 0 254.77 116.08">
  <title>
    嘖嘖
  </title>
<path d="M182.51 27.68h-27.34a2.18 2.18 0 0 0-2.17 2.17v51.81a2.18 2.18 0 0 0 2.17 2.17h27.34a2.18 2.18 0 0 0 2.17-2.17V29.85a2.18 2.18 0 0 0-2.17-2.17zm-7.25 48.56a2.18 2.18 0 0 1-2.17 2.17h-8.49a2.18 2.18 0 0 1-2.17-2.17V35.3a2.18 2.18 0 0 1 2.17-2.17h8.49a2.18 2.18 0 0 1 2.17 2.17zm54.29-48.63a1.47 1.47 0 0 1-1.47-1.47v-5.59a1.47 1.47 0 0 1 1.47-1.47h21.51a2.18 2.18 0 0 0 2.17-2.17v-1.15a2.18 2.18 0 0 0-2.17-2.17h-21.51a1.47 1.47 0 0 1-1.47-1.47V2.17A2.18 2.18 0 0 0 225.91 0h-5.4a2.18 2.18 0 0 0-2.17 2.17v9.95a1.47 1.47 0 0 1-1.47 1.47h-20.74a2.18 2.18 0 0 0-2.13 2.17v1.15a2.18 2.18 0 0 0 2.17 2.17h20.73a1.47 1.47 0 0 1 1.47 1.47v5.59a1.47 1.47 0 0 1-1.47 1.47h-17.83a2.18 2.18 0 0 0-2.17 2.17v1.13a2.18 2.18 0 0 0 2.17 2.17h17.79a1.47 1.47 0 0 1 1.47 1.47v5.66a1.47 1.47 0 0 1-1.47 1.47h-20.73a2.18 2.18 0 0 0-2.13 2.17V45a2.18 2.18 0 0 0 2.17 2.17H251a2.18 2.18 0 0 0 2.15-2.17v-1.15a2.18 2.18 0 0 0-2.15-2.17h-21.45a1.47 1.47 0 0 1-1.47-1.47v-5.65a1.47 1.47 0 0 1 1.47-1.47h19.95a2.18 2.18 0 0 0 2.17-2.17v-1.14a2.18 2.18 0 0 0-2.17-2.17zm24.38 82.14l-15.45-11.88h11a2.78 2.78 0 0 0 2.17-1.14l-1-41c0-2.23-1-3.21-2.17-3.21h-50.79a2.18 2.18 0 0 0-2.17 2.17v41a2.18 2.18 0 0 0 2.17 2.17h11l-15.45 11.88a2.18 2.18 0 0 0-.4 3l1.87 2.44a2.18 2.18 0 0 0 3 .4l23.09-17.76h5.43l23.09 17.76a2.18 2.18 0 0 0 3-.4l1.87-2.44a2.18 2.18 0 0 0-.26-2.99zm-48.79-49.54a2.18 2.18 0 0 1 2.18-2.21h31.56a2.29 2.29 0 0 1 2.12 2.6l.49 15.61-13.8-.64a1 1 0 0 1-1-1.14l1.17-6.59a1.05 1.05 0 0 0-.93-1.16l-21.81-1.21zm0 30V71l15.11 1a1.11 1.11 0 0 1 1 1.21L220 79.68a.93.93 0 0 0 .78 1.2l20.92 1 .33 8.73a2.15 2.15 0 0 1-2.17 1.79h-32.54a2.18 2.18 0 0 1-2.18-2.2zM29.51 27.68H2.17A2.18 2.18 0 0 0 0 29.85v51.81a2.18 2.18 0 0 0 2.17 2.17h27.34a2.18 2.18 0 0 0 2.17-2.17V29.85a2.18 2.18 0 0 0-2.17-2.17zm-7.25 48.56a2.18 2.18 0 0 1-2.17 2.17H11.6a2.18 2.18 0 0 1-2.17-2.17V35.3a2.18 2.18 0 0 1 2.17-2.17h8.49a2.18 2.18 0 0 1 2.17 2.17zm54.29-48.63a1.47 1.47 0 0 1-1.47-1.47v-5.59a1.47 1.47 0 0 1 1.47-1.47h21.51a2.18 2.18 0 0 0 2.17-2.17v-1.15a2.18 2.18 0 0 0-2.17-2.17H76.55a1.47 1.47 0 0 1-1.47-1.47V2.17A2.18 2.18 0 0 0 72.91 0h-5.4a2.18 2.18 0 0 0-2.17 2.17v9.95a1.47 1.47 0 0 1-1.47 1.47H43.13A2.18 2.18 0 0 0 41 15.76v1.15a2.18 2.18 0 0 0 2.17 2.17h20.69a1.47 1.47 0 0 1 1.47 1.47v5.59a1.47 1.47 0 0 1-1.47 1.47H46.07a2.18 2.18 0 0 0-2.17 2.17v1.13a2.18 2.18 0 0 0 2.17 2.17h17.8a1.47 1.47 0 0 1 1.47 1.47v5.66a1.47 1.47 0 0 1-1.47 1.47H43.13A2.18 2.18 0 0 0 41 43.85V45a2.18 2.18 0 0 0 2.17 2.17H98a2.18 2.18 0 0 0 2.15-2.17v-1.15A2.18 2.18 0 0 0 98 41.68H76.55a1.47 1.47 0 0 1-1.47-1.47v-5.65a1.47 1.47 0 0 1 1.47-1.47H96.5a2.18 2.18 0 0 0 2.17-2.17v-1.14a2.18 2.18 0 0 0-2.17-2.17zm24.38 82.14L85.48 97.87h11a2.78 2.78 0 0 0 2.17-1.14l-1-41c0-2.23-1-3.21-2.17-3.21H44.69a2.18 2.18 0 0 0-2.17 2.17v41a2.18 2.18 0 0 0 2.17 2.17h11l-15.43 11.89a2.18 2.18 0 0 0-.4 3l1.87 2.44a2.18 2.18 0 0 0 3 .4l23.15-17.72h5.43l23.09 17.76a2.18 2.18 0 0 0 3-.4l1.87-2.44a2.18 2.18 0 0 0-.34-3.04zM52.14 60.21A2.18 2.18 0 0 1 54.32 58h31.55A2.29 2.29 0 0 1 88 60.6l.49 15.61-13.8-.64a1 1 0 0 1-1-1.14l1.17-6.59a1.05 1.05 0 0 0-.93-1.16l-21.79-1.21zm0 30V71l15.11 1a1.11 1.11 0 0 1 1 1.21L67 79.68a.93.93 0 0 0 .78 1.2l20.92 1 .3 8.71a2.15 2.15 0 0 1-2.17 1.79H54.32a2.18 2.18 0 0 1-2.18-2.18z" data-name="Layer 2"/>
</svg>
